<?xml version="1.0" standalone="no"?>
<!DOCTYPE svg PUBLIC "-//W3C//DTD SVG 20010904//EN"
 "http://www.w3.org/TR/2001/REC-SVG-20010904/DTD/svg10.dtd">
<svg version="1.0" xmlns="http://www.w3.org/2000/svg"
 width="700.000000pt" height="700.000000pt" viewBox="0 0 700.000000 700.000000"
 preserveAspectRatio="xMidYMid meet">
<metadata>
Created by potrace 1.14, written by Peter Selinger 2001-2017
</metadata>
<g transform="translate(0.000000,700.000000) scale(0.100000,-0.100000)"
fill="#000000" stroke="none">
<path d="M3278 6995 c-1 -1 -42 -5 -89 -9 -47 -4 -95 -8 -105 -10 -10 -2 -45
-7 -78 -11 -101 -12 -214 -35 -381 -76 -284 -71 -590 -195 -855 -347 -86 -49
-301 -187 -339 -218 -9 -7 -52 -41 -96 -75 -139 -108 -317 -276 -435 -409 -30
-34 -62 -69 -70 -79 -57 -60 -227 -289 -222 -298 2 -3 0 -9 -5 -12 -22 -15
-52 -64 -46 -75 3 -6 3 -8 -2 -4 -7 7 -84 -106 -85 -125 0 -5 -7 -15 -16 -24
-8 -9 -13 -22 -10 -30 3 -8 2 -12 -3 -9 -8 6 -144 -259 -144 -281 0 -7 -3 -13
-7 -13 -7 0 -35 -80 -32 -92 1 -5 -2 -8 -6 -8 -4 0 -14 -17 -21 -37 -7 -21
-23 -67 -36 -103 -47 -129 -77 -239 -71 -255 3 -9 2 -14 -3 -10 -8 4 -24 -52
-26 -90 0 -5 -3 -14 -6 -20 -7 -12 -14 -46 -43 -220 -35 -209 -43 -339 -40
-595 3 -260 9 -347 27 -369 10 -12 9 -13 -2 -6 -8 5 -12 4 -9 -1 3 -5 9 -34
12 -65 4 -31 8 -66 11 -77 2 -11 6 -37 9 -58 4 -22 8 -46 11 -54 2 -8 6 -26 9
-40 3 -14 8 -36 11 -50 3 -14 8 -36 11 -50 11 -54 36 -148 54 -205 63 -192
135 -385 148 -395 4 -3 8 -12 10 -20 8 -36 126 -258 135 -253 6 4 7 1 3 -6 -5
-7 3 -29 18 -51 14 -22 26 -42 26 -45 0 -9 73 -120 82 -123 4 -2 8 -7 8 -12 0
-13 53 -90 62 -90 4 0 8 -6 8 -12 0 -13 28 -53 67 -94 12 -13 20 -24 17 -24
-4 0 9 -17 27 -37 18 -21 37 -37 41 -36 4 2 8 -5 8 -15 1 -41 311 -350 520
-517 92 -74 370 -265 386 -265 4 0 15 -6 23 -14 9 -7 81 -47 161 -88 354 -181
736 -303 1109 -354 25 -3 57 -8 71 -10 163 -25 682 -25 842 1 13 2 46 7 73 10
71 10 87 13 115 18 14 3 43 8 65 12 115 21 314 74 455 122 558 189 1087 540
1480 982 36 41 70 79 76 85 29 30 185 242 240 326 120 184 241 412 315 597 66
163 147 422 175 558 16 75 54 300 60 350 4 33 9 76 11 95 8 71 10 517 3 595
-17 172 -22 220 -25 225 -2 3 -6 30 -10 60 -3 30 -10 71 -15 90 -5 19 -12 51
-15 70 -3 19 -19 87 -35 151 -193 765 -663 1463 -1306 1941 -409 303 -916 528
-1409 624 -22 4 -42 8 -45 9 -3 0 -30 5 -60 9 -30 4 -64 10 -75 12 -11 2 -49
6 -85 10 -36 3 -78 8 -95 11 -33 5 -531 13 -537 8z m-3048 -2715 c0 -5 -5 -10
-11 -10 -5 0 -7 5 -4 10 3 6 8 10 11 10 2 0 4 -4 4 -10z"/>
</g>
</svg>
