<svg width="39" height="34" viewBox="0 0 39 34" fill="none" xmlns="http://www.w3.org/2000/svg">
<path fill-rule="evenodd" clip-rule="evenodd" d="M15.0337 0.0434455C14.9438 0.0608152 14.8067 0.142607 14.729 0.225204C14.5941 0.368632 14.5867 0.663697 14.5656 6.8355C14.5535 10.3886 14.564 13.4047 14.5889 13.5379C14.6139 13.6712 14.7009 13.8443 14.7824 13.9227C14.9275 14.0622 15.1213 14.0652 24.2621 14.0652C33.4521 14.0652 33.596 14.063 33.7441 13.9204C33.8268 13.8408 33.9135 13.7007 33.9368 13.6089C33.9602 13.5173 33.9696 10.4996 33.9578 6.90315L33.9365 0.364015L33.7631 0.197134C33.5944 0.0346508 33.5432 0.0295938 31.8493 0.00702051C30.4337 -0.0118883 30.0579 0.00430879 29.8353 0.0937956C29.5377 0.213405 29.4279 0.442802 29.5127 0.767915C29.5918 1.07141 29.9502 1.16617 31.0181 1.16617H31.9515L31.4607 1.64256L30.97 2.11894H24.2621H17.5542L17.0649 1.64395L16.5755 1.16896L22.2727 1.14924L27.9699 1.12953L28.1537 0.923876C28.3857 0.664357 28.3857 0.49535 28.1537 0.235831L27.9699 0.0301801L21.5835 0.0210189C18.071 0.0159619 15.1236 0.0260758 15.0337 0.0434455ZM16.2806 2.4283L16.7587 2.88423V7.02921V11.1742L16.2255 11.6833L15.6923 12.1923V7.08234C15.6923 4.27183 15.717 1.97236 15.7474 1.97236C15.7777 1.97236 16.0176 2.17757 16.2806 2.4283ZM32.8319 7.08234V12.1923L32.2987 11.6833L31.7654 11.1742V7.03331V2.89244L32.2393 2.4324C32.5 2.1794 32.74 1.97236 32.7726 1.97236C32.8052 1.97236 32.8319 4.27183 32.8319 7.08234ZM2.27622 2.33932C2.20842 2.37743 2.11511 2.50012 2.06887 2.61189C1.97593 2.83681 0 11.1375 0 11.3031C0 11.3603 0.0710723 11.4939 0.157913 11.6001L0.31575 11.7932H2.51937H4.72292V21.3209V30.8485H4.47032C3.01117 30.8485 1.89221 31.6871 1.68921 32.9329C1.60701 33.437 1.64502 33.6572 1.84415 33.8307C1.98485 33.9533 2.23067 33.965 5.09268 33.9856C6.7956 33.9979 8.30228 33.9878 8.44077 33.9632C8.83194 33.8938 8.98878 33.6948 8.98878 33.2679C8.98878 32.5765 8.5593 31.7833 7.96132 31.3701C7.51736 31.0633 7.09565 30.9271 6.42035 30.8721L5.86503 30.827L5.8843 21.3284L5.90365 11.8298H6.62732H7.351L7.3708 15.0682L7.39068 18.3065L7.59057 18.4579C7.70057 18.5411 7.8357 18.6091 7.89093 18.6091C8.09234 18.6091 8.3646 18.442 8.44717 18.2678C8.50491 18.1458 8.53173 17.0922 8.53173 14.9412V11.7932H9.3993C10.3861 11.7932 10.6146 11.7022 10.6129 11.3099C10.6125 11.1928 10.159 9.18407 9.60528 6.84613C8.70655 3.0514 8.57812 2.57766 8.40855 2.43042L8.21849 2.26552L5.30902 2.26772C3.62263 2.26904 2.34767 2.29909 2.27622 2.33932ZM30.605 5.29524C30.6161 6.41738 30.5977 7.32435 30.5641 7.31071C30.5304 7.29701 30.1315 6.89721 29.6778 6.42215C29.224 5.94701 28.7454 5.50346 28.6142 5.4364C28.2764 5.26373 27.5396 5.26974 27.1657 5.44827C26.9689 5.54223 26.3331 6.16256 25.2648 7.30295C23.7331 8.93797 23.6544 9.00979 23.5419 8.87274C23.029 8.24714 21.6176 6.84151 21.3895 6.72901C21.0528 6.56294 20.4431 6.54579 20.0789 6.69222C19.923 6.75488 19.4574 7.18356 18.8816 7.79479L17.9395 8.79483L17.9194 6.09843C17.9085 4.61548 17.916 3.36054 17.9363 3.30975C17.9656 3.23632 19.2642 3.22129 24.2789 3.23617L30.5847 3.25493L30.605 5.29524ZM7.61761 3.40679C7.61761 3.42987 7.99468 5.03448 8.45555 6.97263C8.91642 8.9107 9.29349 10.5409 9.29349 10.5951C9.29349 10.6766 8.59518 10.6938 5.28914 10.6938C1.51149 10.6938 1.28692 10.6866 1.32333 10.5656C1.34451 10.495 1.70855 8.9697 2.13225 7.17593C2.55586 5.38217 2.93636 3.7909 2.97772 3.6397L3.05291 3.36487H5.3353C6.59053 3.36487 7.61761 3.38377 7.61761 3.40679ZM22.9219 4.04844C22.7373 4.14218 22.4834 4.35941 22.3577 4.53113C22.1513 4.813 22.1292 4.89838 22.1292 5.41126C22.1292 5.91689 22.1531 6.01239 22.3473 6.28195C22.6233 6.66525 23.2038 6.95672 23.6867 6.95445C24.5395 6.95049 25.2896 6.23108 25.2896 5.41698C25.2896 4.27681 23.9719 3.51511 22.9219 4.04844ZM24.0292 5.14016C24.1888 5.35937 24.1785 5.53402 23.9955 5.71014C23.7004 5.99406 23.2337 5.81069 23.2337 5.41082C23.2337 4.99586 23.7871 4.8075 24.0292 5.14016ZM28.1749 6.498C28.2623 6.56858 28.8476 7.17044 29.4755 7.83554L30.6172 9.04482L30.62 9.94262L30.6228 10.8404H28.0026H25.3823L24.9145 10.3327L24.4467 9.82507L25.9035 8.26231C26.7048 7.40277 27.445 6.62531 27.5485 6.53465C27.7745 6.33655 27.9613 6.32563 28.1749 6.498ZM22.3885 9.28302L23.8486 10.8404H20.875H17.9014V10.6604C17.9014 10.5306 18.266 10.0907 19.2106 9.0811C20.3575 7.85526 20.5452 7.68442 20.7242 7.70369C20.8813 7.72055 21.2659 8.08546 22.3885 9.28302ZM31.4226 12.4528L31.9518 12.9658H24.2621H16.5724L17.1015 12.4528L17.6307 11.9398H24.2621H30.8935L31.4226 12.4528ZM14.4175 17.6228C13.0794 17.9695 12.0603 19.0278 11.8137 20.3266C11.7683 20.5658 11.7311 21.2428 11.7311 21.831V22.9006L11.2332 23.1094C10.5905 23.3787 10.1108 23.8303 9.8028 24.4558L9.5601 24.9487L9.53816 29.2472L9.5163 33.5457L9.70301 33.7546L9.88972 33.9634H18.9298H27.9698L28.1537 33.7577C28.3857 33.4982 28.3857 33.3292 28.1537 33.0697L27.9699 32.864L21.5264 32.8444L15.0829 32.8249V30.774V28.7231H24.2621H33.4413V30.7752V32.8274H31.763C29.9048 32.8274 29.6026 32.8809 29.5127 33.2256C29.4292 33.5457 29.5381 33.7803 29.8232 33.8949C30.0394 33.9818 30.8027 34 34.2338 34C36.9201 34 38.4563 33.9732 38.5911 33.9239C39.0111 33.7702 38.9971 33.9244 38.9997 29.4076C39.002 25.5089 38.9923 25.1876 38.8589 24.7755C38.5994 23.9731 37.9776 23.3486 37.1275 23.0362L36.7931 22.9133L36.7886 21.7323C36.7836 20.3648 36.6723 19.8263 36.2579 19.1631C35.9468 18.6654 35.385 18.1549 34.8743 17.9059C34.045 17.5016 34.2173 17.5098 26.5757 17.5098C22.6915 17.5098 19.4555 17.5312 19.3846 17.5574C19.1904 17.6291 19.0452 18.0164 19.1311 18.2335C19.2843 18.6213 18.9479 18.6043 26.5145 18.6068C34.3528 18.6094 33.9902 18.5873 34.6982 19.1055C34.9742 19.3074 35.1525 19.5227 35.3457 19.8869L35.6123 20.3896L35.6387 21.6491L35.6651 22.9085L35.2069 23.0692C34.617 23.2762 34.0747 23.7458 33.7402 24.3395L33.4794 24.8021L33.4545 26.2133L33.4297 27.6244L24.2753 27.6058L15.121 27.5871L15.0812 26.1946C15.0446 24.9115 15.0269 24.7733 14.856 24.4357C14.5668 23.864 13.9129 23.2781 13.3396 23.077L12.8591 22.9085L12.8855 21.6491L12.9119 20.3896L13.1785 19.8869C13.3703 19.5253 13.5491 19.3086 13.8158 19.115C14.4103 18.6832 14.7626 18.6091 16.224 18.6091C17.3995 18.6091 17.5158 18.5972 17.7007 18.4572C17.963 18.2587 17.9743 17.8944 17.7251 17.6691C17.5571 17.5173 17.484 17.51 16.1826 17.5146C15.2608 17.5179 14.6865 17.553 14.4175 17.6228ZM13.1282 24.1974C13.2988 24.2881 13.5427 24.5054 13.6703 24.6801L13.9021 24.9979L13.9231 28.9126L13.9441 32.8274H12.3043H10.6647L10.6651 29.1079C10.6653 26.6914 10.6941 25.2895 10.747 25.1059C10.7919 24.9505 10.9678 24.6781 11.1379 24.5006C11.6623 23.9532 12.445 23.834 13.1282 24.1974ZM36.6934 24.0693C37.1558 24.2014 37.6535 24.6775 37.7772 25.1059C37.8301 25.2895 37.8588 26.6914 37.8591 29.1079L37.8595 32.8274H36.2217H34.584V29.0028C34.584 25.2659 34.5876 25.1709 34.7441 24.86C34.9229 24.5046 35.2777 24.2114 35.7074 24.0639C36.0801 23.9359 36.2294 23.9367 36.6934 24.0693ZM7.0082 32.0863C7.24549 32.2101 7.60718 32.529 7.70301 32.6991C7.77118 32.82 7.63582 32.8274 5.33309 32.8274H2.89081L2.99959 32.6258C3.14173 32.3624 3.50425 32.1101 3.86388 32.0243C4.31134 31.9175 6.77777 31.9662 7.0082 32.0863Z" fill="#222222"/>
</svg>
