<svg width="39" height="34" viewBox="0 0 39 34" fill="none" xmlns="http://www.w3.org/2000/svg">
<path fill-rule="evenodd" clip-rule="evenodd" d="M8.58906 0.066713C6.72867 0.322263 5.04292 1.11727 3.62287 2.40883C2.29136 3.61997 1.37544 5.17479 0.896582 7.03709C0.696437 7.81536 0.653347 9.90133 0.819463 10.7699C1.26886 13.1198 2.77577 15.3134 4.88229 16.6842L5.36564 16.9987H2.91608H0.466524L0.233262 17.2022L0 17.4057L0.0436225 18.2482C0.0940205 19.2229 0.261506 19.8205 0.70778 20.6182C1.34925 21.7649 2.31762 22.6097 3.63764 23.1742C4.47911 23.5341 5.11251 23.6966 5.89687 23.754C6.31361 23.7844 6.41638 23.8139 6.41638 23.9026C6.41638 23.9635 6.14452 26.144 5.81229 28.7481C5.41109 31.8929 5.23051 33.5339 5.27459 33.6351C5.4372 34.0082 5.33686 34 9.7661 34C14.1953 34 14.095 34.0082 14.2576 33.6351C14.3017 33.5339 14.1211 31.8929 13.7199 28.7481C13.3877 26.144 13.1158 23.9635 13.1158 23.9026C13.1158 23.813 13.2212 23.7844 13.6678 23.7527C14.4651 23.6961 15.032 23.5502 15.8946 23.1796C18.0902 22.2362 19.3783 20.4695 19.4899 18.2482L19.5322 17.4057L19.2989 17.2022L19.0657 16.9987H16.6153H14.1649L14.624 16.7039C16.3422 15.6005 17.7424 13.8325 18.4032 11.9318C18.7634 10.8958 18.8462 10.2519 18.8019 8.83019C18.7577 7.41311 18.6756 6.9726 18.2452 5.84169C17.7062 4.42527 16.9452 3.34204 15.7428 2.27973C14.5407 1.21775 13.2411 0.555366 11.6638 0.200731C10.9275 0.0352341 9.3266 -0.0345639 8.58906 0.066713ZM22.8985 0.0916172C22.584 0.214079 22.2631 0.527274 22.1738 0.799028C22.0721 1.10811 22.0733 14.7565 22.175 15.0757C22.26 15.3428 22.6418 15.6944 22.9606 15.7993C23.1064 15.8472 25.5366 15.8698 30.557 15.8698C36.656 15.8698 37.9817 15.8539 38.184 15.7783C38.4803 15.6677 38.8088 15.3727 38.919 15.1183C38.9743 14.9905 39 12.7145 39 7.92719C39 2.12745 38.982 0.886226 38.8952 0.709307C38.7684 0.450835 38.4302 0.164271 38.1386 0.068174C37.9923 0.0199596 35.575 -0.00169041 30.5256 0.000102688C24.5136 0.00222784 23.0841 0.0193619 22.8985 0.0916172ZM11.4694 1.3266C13.5519 1.80642 15.3395 3.13318 16.4454 5.01985C17.188 6.28658 17.5307 7.56326 17.5307 9.06262C17.5308 10.5429 17.2512 11.6384 16.5475 12.9145C15.4238 14.9525 13.5405 16.3664 11.3137 16.8441C10.761 16.9627 9.06464 17.008 8.68125 16.9145L8.47189 16.8634V15.4006V13.9378L8.65879 13.7748C8.82354 13.631 8.9123 13.6118 9.40981 13.6118C10.0874 13.6118 10.3285 13.7356 10.4101 14.1253C10.4826 14.4713 10.6359 14.6554 10.8922 14.7045C11.4476 14.811 11.8129 14.403 11.6678 13.8384C11.5557 13.4018 11.4172 13.1984 11.0293 12.9006C10.5964 12.5681 10.2621 12.4828 9.39322 12.4828C8.38373 12.4828 7.841 12.7171 7.42678 13.3318C7.2175 13.6423 7.21544 13.6571 7.17768 15.0957L7.13962 16.5464L6.61074 16.3058C4.41386 15.3063 2.77486 13.2978 2.17359 10.8685C1.98326 10.0995 1.98326 8.02575 2.17359 7.25677C2.78773 4.77539 4.47263 2.74959 6.76369 1.73795C7.20007 1.54529 8.20787 1.26909 8.74246 1.19557C9.4242 1.10193 10.7763 1.16688 11.4694 1.3266ZM29.9025 6.24015V11.3206L26.6479 11.3379L23.3934 11.3552V6.24015V1.12511L26.6479 1.14237L29.9025 1.15971V6.24015ZM37.7058 6.24015V11.3538H34.4703H31.2347V6.24015V1.1265H34.4703H37.7058V6.24015ZM6.0569 4.13346C4.70468 5.31312 4.58927 5.43226 4.58927 5.64843C4.58927 6.02266 5.01856 6.31998 5.40462 6.21306C5.48219 6.19154 6.20413 5.5969 7.00883 4.89154C8.30479 3.75565 8.47189 3.58457 8.47189 3.39417C8.47189 3.08955 8.18336 2.85319 7.81139 2.85319C7.54044 2.85319 7.4436 2.92385 6.0569 4.13346ZM7.76426 6.02432C5.76106 7.76847 4.07295 9.27614 4.01304 9.37476C3.85872 9.62885 3.87722 9.79175 4.08452 10.0019C4.2208 10.1401 4.33377 10.185 4.5458 10.185C4.81491 10.185 4.98301 10.0484 8.59058 6.89955C12.694 3.31787 12.574 3.44657 12.1967 3.02818C12.0715 2.88932 11.9736 2.85319 11.7228 2.85319C11.4072 2.85319 11.3994 2.8595 7.76426 6.02432ZM27.6457 5.73948C27.425 5.84813 27.2559 6.17819 27.3286 6.35823C27.354 6.42112 27.4442 6.53987 27.529 6.62202C27.6641 6.75291 27.7574 6.77144 28.2824 6.77144C28.8171 6.77144 28.9017 6.75391 29.0685 6.6084C29.3095 6.39821 29.3117 6.10547 29.0743 5.8646C28.9141 5.70222 28.8324 5.67858 28.3701 5.66065C28.0103 5.64677 27.7842 5.67134 27.6457 5.73948ZM32.2267 5.72739C31.8153 5.90903 31.7415 6.3502 32.0741 6.64028C32.1981 6.74846 32.3285 6.77144 32.8191 6.77144C33.4534 6.77144 33.6733 6.68019 33.7861 6.37032C33.8596 6.1681 33.6835 5.85079 33.4356 5.73895C33.1741 5.621 32.4828 5.61436 32.2267 5.72739ZM37.7058 13.6118V14.7408H30.5496H23.3934V13.6118V12.4828H30.5496H37.7058V13.6118ZM25.7662 17.7693C25.1051 18.0567 24.768 18.5544 24.7068 19.3334L24.6658 19.8544H24.0296H23.3934V19.453C23.3934 19.1152 23.3637 19.0255 23.2065 18.8885C23.0226 18.728 22.71 18.678 22.4452 18.7667C22.2481 18.8326 22.0992 19.1566 22.0992 19.5191V19.8544H21.6424C21.1364 19.8544 20.9276 19.9685 20.8333 20.2964C20.7222 20.6824 21.1153 20.9808 21.7375 20.9824L22.0992 20.9834V21.345C22.0992 21.7683 22.2966 22.0219 22.6753 22.0852C22.8579 22.1157 22.9617 22.0854 23.1511 21.9464C23.373 21.7835 23.3934 21.7357 23.3934 21.376V20.9834H24.0405H24.6876V24.9851C24.6876 27.4007 24.7172 29.0768 24.7622 29.2138C24.8461 29.469 25.1555 29.781 25.4641 29.9216C25.7733 30.0625 31.4493 30.0593 31.7624 29.9181C32.24 29.7027 32.5277 29.2218 32.5285 28.6373L32.529 28.355L33.2332 28.3521C34.2839 28.3478 34.6978 28.1827 34.9742 27.6577C35.1037 27.4117 35.1142 27.1547 35.1157 24.1877L35.1174 20.9834H35.7645H36.4116V21.3538C36.4116 21.6779 36.4405 21.7494 36.643 21.9261C36.8365 22.0949 36.9145 22.1212 37.1188 22.087C37.5051 22.0224 37.7058 21.7714 37.7058 21.3529V20.9994L38.1741 20.9698C38.5671 20.945 38.671 20.9111 38.8212 20.7589C39.0563 20.5204 39.0531 20.2268 38.8131 20.0175C38.6567 19.881 38.5527 19.8544 38.1749 19.8544H37.7235L37.6914 19.4139C37.6651 19.0538 37.6272 18.9507 37.4837 18.8494C37.2313 18.6711 36.8272 18.6889 36.5985 18.8885C36.4413 19.0255 36.4116 19.1152 36.4116 19.453V19.8544H35.7645H35.1174L35.1169 19.4726C35.1161 18.692 34.7396 18.0887 34.0619 17.7815L33.6535 17.5964H29.9087H26.164L25.7662 17.7693ZM18.1865 18.563C17.963 20.4653 16.4044 22.0404 14.2756 22.5154C13.7437 22.6341 13.405 22.6437 9.7661 22.6437C6.09953 22.6437 5.79174 22.6348 5.24467 22.5127C4.14923 22.2683 3.06431 21.6511 2.42405 20.9082C2.2332 20.6866 2.07698 20.4784 2.07698 20.4456C2.07698 20.4123 2.6864 20.3857 3.45074 20.3857C4.80783 20.3857 4.82687 20.3837 5.01141 20.2227C5.2168 20.0436 5.2605 19.6982 5.10071 19.5166C4.8947 19.2826 4.69394 19.2567 3.07991 19.2567C1.25264 19.2567 1.44921 19.3378 1.34857 18.5428L1.29604 18.1277H9.76679H18.2375L18.1865 18.563ZM31.281 18.8305C31.2555 18.8883 31.2347 21.1745 31.2347 23.9109V28.8863H28.6068H25.9789L25.9994 23.9772L26.0198 19.0681L26.2044 18.8968L26.389 18.7254H28.858C31.0783 18.7254 31.3225 18.736 31.281 18.8305ZM33.5929 18.8566C33.778 19.0181 33.8411 19.2237 33.8095 19.5619L33.7851 19.8212L33.157 19.8405L32.529 19.8598V19.4676C32.529 18.9477 32.713 18.7254 33.1436 18.7254C33.3397 18.7254 33.4942 18.7705 33.5929 18.8566ZM6.87316 19.3427C6.4597 19.5251 6.40984 20.0015 6.77777 20.254C6.92935 20.358 7.08404 20.3852 7.51151 20.3836C8.07221 20.3814 8.23018 20.3254 8.38335 20.0746C8.5261 19.8407 8.48689 19.658 8.24936 19.4508C8.04998 19.2769 7.97674 19.2569 7.54516 19.2577C7.28023 19.2583 6.97784 19.2965 6.87316 19.3427ZM33.8049 24.0881L33.7851 27.1929L33.157 27.2121L32.529 27.2314V24.1074V20.9834H33.1768H33.8247L33.8049 24.0881ZM12.3232 28.023C12.6201 30.3424 12.8813 32.382 12.9039 32.5555L12.9448 32.871H9.75864H6.57245L6.60907 32.6884C6.62924 32.588 6.88725 30.5782 7.1824 28.2222C7.47763 25.8663 7.73351 23.9009 7.75102 23.8546C7.77591 23.7889 8.22211 23.7743 9.78323 23.7882L11.7835 23.8059L12.3232 28.023Z" fill="#222222"/>
</svg>
