<svg width="36" height="36" viewBox="0 0 36 36" fill="none" xmlns="http://www.w3.org/2000/svg">
<path fill-rule="evenodd" clip-rule="evenodd" d="M17.4391 0.0405349C17.2252 0.0823546 16.7508 0.300861 7.59375 4.57412C3.41339 6.52487 0.193078 8.06868 0.123047 8.15548C0.0130781 8.29181 0 8.50231 0 10.1406V11.9732L0.172617 12.1536C0.335883 12.3243 0.388828 12.334 1.15699 12.334H1.96875V20.8964V29.4588H1.15699C0.388828 29.4588 0.335883 29.4685 0.172617 29.6392C0.00379687 29.8156 0 29.8453 0 30.9907C0 32.4598 0.0156797 32.4909 0.784688 32.5456L1.30078 32.5824L1.33594 34.187C1.36835 35.667 1.38171 35.7997 1.50757 35.8958C1.62443 35.985 3.99305 36 17.9829 36C28.8677 36 34.3661 35.9752 34.4547 35.9256C34.6736 35.8032 34.7336 35.3731 34.734 33.9237L34.7344 32.5456H35.1946C35.5895 32.5456 35.6793 32.5201 35.8274 32.3652C35.9963 32.1887 36 32.1599 36 31.0022C36 29.8446 35.9963 29.8157 35.8274 29.6392C35.6641 29.4685 35.6112 29.4588 34.843 29.4588H34.0312V20.8964V12.334H34.843C35.6112 12.334 35.6641 12.3243 35.8274 12.1536L36 11.9732V10.1406C36 8.5029 35.9869 8.29159 35.877 8.15393C35.8058 8.06493 33.0559 6.74162 29.3555 5.01569C25.8363 3.37428 22.044 1.60374 20.9281 1.0811C19.8122 0.558394 18.7681 0.0991119 18.6078 0.0604525C18.3107 -0.0112805 17.7529 -0.0207616 17.4391 0.0405349ZM14.2554 3.86348C13.2726 4.94484 12.044 6.30056 11.5253 6.87634L10.582 7.92308L6.82031 7.91786C4.75137 7.91492 3.09023 7.89765 3.12891 7.87942C7.92823 5.61682 15.881 1.91081 15.9489 1.90515C16.0003 1.90089 15.2383 2.78219 14.2554 3.86348ZM26.543 4.91007C30.0234 6.53604 32.8843 7.87942 32.9004 7.8953C32.9165 7.91117 31.2396 7.92396 29.1739 7.92367L25.418 7.92308L24.4747 6.87634C23.956 6.30056 22.722 4.93881 21.7325 3.85017C20.7431 2.76154 19.9969 1.88942 20.0742 1.91221C20.1516 1.93499 23.0625 3.28403 26.543 4.91007ZM17.4375 4.94756V7.92418H14.7279H12.0182L14.7103 4.95175C16.1909 3.31695 17.4103 1.97747 17.4199 1.97512C17.4296 1.97284 17.4375 3.31041 17.4375 4.94756ZM21.368 5.03943L23.9842 7.92418H21.2733H18.5625V4.93183C18.5625 2.41948 18.5777 1.95667 18.6571 2.04707C18.7092 2.10624 19.9291 3.45278 21.368 5.03943ZM34.9453 10.1291V11.2315H24.5837H14.2221L14.0368 11.3839C13.8047 11.5748 13.7828 11.9681 13.9922 12.187C14.1249 12.3257 14.2265 12.334 15.7887 12.334H17.4445L17.4234 12.7468L17.4023 13.1597L17.0014 13.289C15.7721 13.6856 14.8624 14.8175 14.674 16.1852C14.6026 16.7027 14.6075 16.7578 14.7412 16.9456C14.8653 17.12 14.9471 17.1531 15.3311 17.1848C15.761 17.2202 15.779 17.2298 15.8337 17.452C15.8649 17.5787 15.9934 17.8422 16.1191 18.0375C17.0255 19.4455 18.9745 19.4455 19.8809 18.0375C20.0066 17.8422 20.1351 17.5787 20.1663 17.452C20.221 17.2298 20.239 17.2202 20.6689 17.1848C21.0529 17.1531 21.1347 17.12 21.2588 16.9456C21.3917 16.7589 21.3971 16.701 21.3285 16.2029C21.14 14.8358 20.2856 13.7437 19.0707 13.3172L18.5977 13.1511L18.5766 12.7426L18.5555 12.334H24.7816H31.0078V16.5233C31.0078 20.6147 31.0111 20.7161 31.1484 20.8596C31.3261 21.0454 31.6461 21.0483 31.8613 20.8662L32.0273 20.7257L32.0466 16.5299L32.0659 12.334H32.5212H32.9766V20.8964V29.4588H32.5195H32.0625V26.1825V22.9062L31.857 22.6914C31.614 22.4374 31.4453 22.4215 31.1931 22.6289L31.0078 22.7812V26.12V29.4588H29.8477H28.6875V28.9075V28.3563H28.9368C29.1077 28.3563 29.2403 28.2996 29.3586 28.1759L29.5312 27.9955V23.6657C29.5312 18.465 29.6348 18.9487 28.5211 18.9487C27.8352 18.9487 27.785 18.9596 27.4218 19.1876C27.1283 19.3718 26.9963 19.5166 26.8448 19.8207L26.6484 20.2149V22.625V25.0351L25.6465 25.0604C24.7028 25.0842 24.6255 25.0974 24.3167 25.2872C23.7622 25.6279 23.6643 25.8757 23.6358 27.0113C23.6117 27.9686 23.6137 27.9837 23.7908 28.1688C23.9156 28.2993 24.046 28.3563 24.2195 28.3563H24.4688V28.9075V29.4588H23.625H22.7812V26.8864V24.314H23.2054C24.1513 24.314 24.75 23.73 24.75 22.8073C24.75 22.1216 24.3927 21.6012 23.7727 21.3843C23.4342 21.2658 12.5658 21.2658 12.2273 21.3843C11.2246 21.7352 10.9094 23.0366 11.6274 23.8616C11.8744 24.1455 12.1702 24.2661 12.7266 24.3095L13.2539 24.3507L13.2724 26.9048L13.2909 29.4588H12.4111H11.5312V28.9075V28.3563H11.7805C11.954 28.3563 12.0844 28.2993 12.2092 28.1688C12.3863 27.9837 12.3883 27.9686 12.3642 27.0113C12.3357 25.8757 12.2378 25.6279 11.6833 25.2872C11.3745 25.0974 11.2972 25.0842 10.3535 25.0604L9.35156 25.0351V22.625V20.2149L9.15518 19.8207C9.00366 19.5166 8.87175 19.3718 8.5782 19.1876C8.21496 18.9596 8.16483 18.9487 7.47893 18.9487C6.41341 18.9487 6.46875 18.8151 6.46875 21.3873V23.4387L6.64137 23.6191C6.73629 23.7183 6.8959 23.7995 6.99609 23.7995C7.09629 23.7995 7.2559 23.7183 7.35082 23.6191L7.52344 23.4387V21.7449V20.0512H7.7573C7.90959 20.0512 8.04347 20.1095 8.14141 20.2184C8.28823 20.3818 8.29209 20.445 8.31185 23.017L8.33203 25.6484L8.59465 25.8999L8.85734 26.1514H9.93255C11.2674 26.1514 11.3203 26.1768 11.3203 26.8171V27.2539H9.42188H7.52344V26.4553C7.52344 25.7587 7.5048 25.632 7.37768 25.4631C7.17616 25.1953 6.81602 25.1953 6.61451 25.4631C6.48091 25.6406 6.46875 25.7544 6.46875 26.8261C6.46875 27.9697 6.47255 27.9995 6.64137 28.1759C6.7597 28.2996 6.89231 28.3563 7.06324 28.3563H7.3125V28.9075V29.4588H6.15234H4.99219V20.8964V12.334H8.54297C12 12.334 12.0975 12.3301 12.2344 12.187C12.375 12.04 12.4239 11.6422 12.3212 11.4814C12.1666 11.2394 11.9829 11.2315 6.50855 11.2315H1.05469V10.1291V9.02663H18H34.9453V10.1291ZM3.9375 20.8964V29.4588H3.48047H3.02344V20.8964V12.334H3.48047H3.9375V20.8964ZM18.7957 14.3619C19.3487 14.5589 20.0418 15.3197 20.2123 15.917L20.2595 16.0823H18H15.7405L15.7877 15.917C15.9532 15.3372 16.647 14.5621 17.1756 14.3665C17.5747 14.2188 18.3873 14.2165 18.7957 14.3619ZM19.0761 17.2316C19.1632 17.3227 18.8185 17.7183 18.5343 17.8532C18.1569 18.0324 17.8326 18.0284 17.4602 17.8399C17.1603 17.6882 16.8375 17.322 16.9239 17.2316C16.9824 17.1705 19.0176 17.1705 19.0761 17.2316ZM28.4766 23.6525V27.2539H26.5781H24.6797V26.8171C24.6797 26.1768 24.7326 26.1514 26.0674 26.1514H27.1427L27.4054 25.8999L27.668 25.6484L27.6881 23.017C27.7079 20.445 27.7118 20.3818 27.8586 20.2184C27.9565 20.1095 28.0904 20.0512 28.2427 20.0512H28.4766V23.6525ZM23.5593 22.4791C23.6532 22.5317 23.6953 22.6333 23.6953 22.8073C23.6953 22.9813 23.6532 23.0829 23.5593 23.1355C23.3709 23.2409 12.6291 23.2409 12.4407 23.1355C12.2614 23.0351 12.2525 22.5892 12.4277 22.4824C12.5993 22.378 23.3728 22.3748 23.5593 22.4791ZM21.6562 24.8652V25.4164H18H14.3438V24.8652V24.314H18H21.6562V24.8652ZM21.6562 26.8864V27.2539H18H14.3438V26.8864V26.5189H18H21.6562V26.8864ZM10.4766 28.9075V29.4588H9.42188H8.36719V28.9075V28.3563H9.42188H10.4766V28.9075ZM21.6562 28.9075V29.4588H18H14.3438V28.9075V28.3563H18H21.6562V28.9075ZM27.6328 28.9075V29.4588H26.5781H25.5234V28.9075V28.3563H26.5781H27.6328V28.9075ZM34.9453 31.0022V31.4432H29.9851H25.0249L24.8523 31.6236C24.6323 31.8535 24.6323 32.1353 24.8523 32.3652L25.0249 32.5456H29.3171H33.6094V33.7216V34.8975H18H2.39062V33.7216V32.5456H12.6594H22.9283L23.1008 32.3652C23.3208 32.1353 23.3208 31.8535 23.1008 31.6236L22.9283 31.4432H11.9914H1.05469V31.0022V30.5612H18H34.9453V31.0022Z" fill="#222222"/>
</svg>
